<?xml version="1.0" encoding="utf-8"?>
<!-- Generator: Adobe Illustrator 16.0.0, SVG Export Plug-In . SVG Version: 6.00 Build 0)  -->
<!DOCTYPE svg PUBLIC "-//W3C//DTD SVG 1.1//EN" "http://www.w3.org/Graphics/SVG/1.1/DTD/svg11.dtd">
<svg version="1.1" id="Layer_1" xmlns="http://www.w3.org/2000/svg" xmlns:xlink="http://www.w3.org/1999/xlink" x="0px" y="0px"
	 width="61.852px" height="61.854px" viewBox="225.485 225.484 61.852 61.854"
	 enable-background="new 225.485 225.484 61.852 61.854" xml:space="preserve">
<g>
	<path fill="#2868FE" d="M256.41,287.337c-0.161,0-0.322,0-0.483,0c-0.446-0.757-1.285-0.935-1.982-1.29
		c-5.431-2.777-10.854-5.572-16.335-8.249c-1.359-0.663-2.071-1.508-2.42-2.975c-1.746-7.341-3.512-14.679-5.419-21.978
		c-1.416-5.419-2.34-10.969-4.286-16.248c0-0.161,0-0.322,0-0.483c3.039-1.057,6.059-2.169,9.12-3.158
		c7.112-2.299,14.079-5.042,21.298-7.015c0.569,0.58,0.5,1.324,0.498,2.037c-0.012,4.004-0.037,8.007-0.058,12.011
		c-3.283,0.045-6.57,0.193-9.849,0.093c-1.721-0.052-2.008,0.678-1.963,2.135c0.043,1.373-0.071,2.491,1.938,2.427
		c3.276-0.104,6.562,0.068,9.844,0.123c0.01,2.724,0.019,5.447,0.027,8.17c-3.858,0.041-7.717,0.041-11.573,0.146
		c-1.178,0.032-1.714-0.657-2.299-1.441c-2.115-2.837-4.307-5.619-6.345-8.51c-1.267-1.795-2.016-0.226-2.869,0.314
		c-0.803,0.508-1.92,0.891-0.821,2.33c8.007,10.477,15.943,21.007,23.902,31.521C256.358,280.643,256.384,283.989,256.41,287.337z"
		/>
	<path fill="#035DBF" d="M256.342,239.989c0.021-4.004,0.046-8.007,0.058-12.011c0.002-0.713,0.071-1.457-0.498-2.036
		c0.041-0.151,0.049-0.304,0.025-0.458c0.322,0,0.645,0,0.967,0c0.156,0.155,0.287,0.39,0.476,0.454
		c9.463,3.21,18.929,6.412,28.403,9.588c0.48,0.161,1.013,0.58,1.563,0.105c0,0.322,0,0.645,0,0.967
		c-0.621,0.512-0.619,1.298-0.792,1.974c-2.503,9.802-5.395,19.532-7.301,29.45c-1.225,6.362-4.012,10.377-10.096,12.758
		c-4.273,1.674-8.43,3.887-12.256,6.559c-0.16,0-0.322,0-0.482,0c-0.026-3.348-0.052-6.693-0.077-10.042
		c4.677-6.144,9.362-12.278,14.026-18.432c3.304-4.358,6.55-8.761,9.879-13.1c1.236-1.611,1.025-3.492,0.576-5.063
		c-0.362-1.272-2.127-0.529-3.241-0.546C270.496,240.047,263.419,240.033,256.342,239.989z"/>
	<path fill="#FBFCFD" d="M256.342,239.989c7.077,0.044,14.154,0.058,21.231,0.166c1.114,0.017,2.879-0.726,3.241,0.546
		c0.449,1.572,0.66,3.452-0.576,5.063c-3.329,4.338-6.575,8.741-9.879,13.1c-4.664,6.151-9.351,12.288-14.026,18.432
		c-7.959-10.513-15.896-21.043-23.903-31.52c-1.099-1.439,0.019-1.821,0.821-2.33c0.853-0.54,1.602-2.109,2.869-0.314
		c2.038,2.891,4.23,5.672,6.345,8.51c0.585,0.784,1.121,1.473,2.299,1.441c3.856-0.104,7.715-0.105,11.574-0.146
		c1.934,0.032,3.633-0.052,3.334,2.935c-0.275,2.757-2.349,1.03-3.332,1.812c-2.979-0.402-5.945-0.166-9.543-0.156
		c3.588,4.232,6.03,8.527,9.525,12.021c0.604,0.017,0.771-0.517,1.042-0.875c5.67-7.519,11.331-15.042,16.977-22.579
		c0.257-0.341,0.777-0.653,0.429-1.326c-6.127,0-12.293,0-18.46,0c-3.281-0.055-6.566-0.228-9.843-0.123
		c-2.008,0.064-1.895-1.054-1.938-2.427c-0.045-1.457,0.242-2.187,1.963-2.135C249.772,240.182,253.059,240.034,256.342,239.989z"/>
	<path fill="#035DBF" d="M256.341,257.682c0.983-0.779,3.058,0.946,3.332-1.811c0.298-2.986-1.401-2.903-3.334-2.935
		c-0.01-2.724-0.019-5.447-0.028-8.17c6.166,0,12.333,0,18.458,0c0.351,0.673-0.172,0.985-0.428,1.326
		c-5.645,7.537-11.307,15.061-16.977,22.579c-0.271,0.358-0.438,0.892-1.042,0.875C256.33,265.591,256.335,261.637,256.341,257.682z
		"/>
	<path fill="#2868FE" d="M256.341,257.682c-0.006,3.955-0.011,7.909-0.018,11.864c-3.495-3.493-5.937-7.787-9.525-12.021
		C250.396,257.518,253.362,257.279,256.341,257.682z"/>
</g>
</svg>
